<svg width="27" height="28" viewBox="0 0 27 28" fill="none" xmlns="http://www.w3.org/2000/svg">
<path d="M1 15.25C1.66304 15.25 2.29893 14.9866 2.76777 14.5178C3.23661 14.0489 3.5 13.413 3.5 12.75V7.75C3.5 7.08696 3.76339 6.45107 4.23223 5.98223C4.70107 5.51339 5.33696 5.25 6 5.25C6.66304 5.25 7.29893 5.51339 7.76777 5.98223C8.23661 6.45107 8.5 7.08696 8.5 7.75V24C8.5 24.663 8.76339 25.2989 9.23223 25.7678C9.70107 26.2366 10.337 26.5 11 26.5C11.663 26.5 12.2989 26.2366 12.7678 25.7678C13.2366 25.2989 13.5 24.663 13.5 24V4C13.5 3.33696 13.7634 2.70107 14.2322 2.23223C14.7011 1.76339 15.337 1.5 16 1.5C16.663 1.5 17.2989 1.76339 17.7678 2.23223C18.2366 2.70107 18.5 3.33696 18.5 4V20.25C18.5 20.913 18.7634 21.5489 19.2322 22.0178C19.7011 22.4866 20.337 22.75 21 22.75C21.663 22.75 22.2989 22.4866 22.7678 22.0178C23.2366 21.5489 23.5 20.913 23.5 20.25V15.25C23.5 14.587 23.7634 13.9511 24.2322 13.4822C24.7011 13.0134 25.337 12.75 26 12.75" stroke="#178484" stroke-width="2" stroke-linecap="round" stroke-linejoin="round"/>
</svg>
