<svg width="23" height="28" viewBox="0 0 23 28" fill="none" xmlns="http://www.w3.org/2000/svg">
<path d="M9 1.5V11.5L12.75 7.75L16.5 11.5V1.5M1.5 23.375V4.625C1.5 3.7962 1.82924 3.00134 2.41529 2.41529C3.00134 1.82924 3.7962 1.5 4.625 1.5H20.25C20.5815 1.5 20.8995 1.6317 21.1339 1.86612C21.3683 2.10054 21.5 2.41848 21.5 2.75V25.25C21.5 25.5815 21.3683 25.8995 21.1339 26.1339C20.8995 26.3683 20.5815 26.5 20.25 26.5H4.625C3.7962 26.5 3.00134 26.1708 2.41529 25.5847C1.82924 24.9987 1.5 24.2038 1.5 23.375ZM1.5 23.375C1.5 22.5462 1.82924 21.7513 2.41529 21.1653C3.00134 20.5792 3.7962 20.25 4.625 20.25H21.5" stroke="#178484" stroke-width="2" stroke-linecap="round" stroke-linejoin="round"/>
</svg>
