<svg width="118" height="118" viewBox="0 0 118 118" fill="none" xmlns="http://www.w3.org/2000/svg">
<path d="M59.0002 34.4167C59.0002 29.2007 56.9281 24.1984 53.2399 20.5102C49.5517 16.822 44.5494 14.75 39.3335 14.75H9.8335V88.5H44.2502C48.1621 88.5 51.9138 90.054 54.68 92.8202C57.4462 95.5863 59.0002 99.3381 59.0002 103.25M59.0002 34.4167V103.25M59.0002 34.4167C59.0002 29.2007 61.0722 24.1984 64.7604 20.5102C68.4486 16.822 73.4509 14.75 78.6668 14.75H108.167V88.5H73.7502C69.8382 88.5 66.0865 90.054 63.3203 92.8202C60.5542 95.5863 59.0002 99.3381 59.0002 103.25M29.5002 39.3333H39.3335M29.5002 59H39.3335M78.6668 39.3333H88.5002M78.6668 59H88.5002" stroke="white" stroke-width="6.94118" stroke-linecap="round" stroke-linejoin="round"/>
</svg>
