<svg width="21" height="20" viewBox="0 0 21 20" fill="none" xmlns="http://www.w3.org/2000/svg">
<path d="M9.4585 13.6249V11.5416H11.5418V13.6249H9.4585ZM8.41683 4.24992H12.5835V2.16659H8.41683V4.24992ZM2.16683 19.8749C1.59391 19.8749 1.10364 19.6711 0.695996 19.2635C0.288357 18.8558 0.0841905 18.3652 0.0834961 17.7916V13.6249H7.37516V14.6666C7.37516 14.9617 7.47516 15.2093 7.67516 15.4093C7.87516 15.6093 8.12239 15.7089 8.41683 15.7083H12.5835C12.8786 15.7083 13.1262 15.6083 13.3262 15.4083C13.5262 15.2083 13.6259 14.961 13.6252 14.6666V13.6249H20.9168V17.7916C20.9168 18.3645 20.713 18.8551 20.3054 19.2635C19.8977 19.6718 19.4071 19.8756 18.8335 19.8749H2.16683ZM0.0834961 11.5416V6.33325C0.0834961 5.76033 0.287663 5.27006 0.695996 4.86242C1.10433 4.45478 1.59461 4.25061 2.16683 4.24992H6.3335V2.16659C6.3335 1.59367 6.53766 1.10339 6.946 0.695752C7.35433 0.288113 7.84461 0.0839464 8.41683 0.083252H12.5835C13.1564 0.083252 13.647 0.287419 14.0554 0.695752C14.4637 1.10409 14.6675 1.59436 14.6668 2.16659V4.24992H18.8335C19.4064 4.24992 19.897 4.45408 20.3054 4.86242C20.7137 5.27075 20.9175 5.76103 20.9168 6.33325V11.5416H13.6252V10.4999C13.6252 10.2048 13.5252 9.95756 13.3252 9.75825C13.1252 9.55895 12.8779 9.45895 12.5835 9.45825H8.41683C8.12169 9.45825 7.87447 9.55825 7.67516 9.75825C7.47586 9.95825 7.37586 10.2055 7.37516 10.4999V11.5416H0.0834961Z" fill="#178484"/>
</svg>
