<svg width="25" height="21" viewBox="0 0 25 21" fill="none" xmlns="http://www.w3.org/2000/svg">
<path d="M3.75 7.94359C3.75 5.96943 4.67187 4.07612 6.31282 2.68018C7.95376 1.28423 10.1794 0.5 12.5 0.5C14.8206 0.5 17.0462 1.28423 18.6872 2.68018C20.3281 4.07612 21.25 5.96943 21.25 7.94359V9.04418C23.37 9.30258 25 10.854 25 12.7288V12.9946C25 14.8821 23.0862 16.5367 20.835 16.4484C19.91 18.7028 17.5575 20.2223 15.0188 20.6073C14.4313 20.7902 13.7362 20.704 13.125 20.704C12.6277 20.704 12.1508 20.536 11.7992 20.2369C11.4475 19.9377 11.25 19.532 11.25 19.109C11.25 18.6859 11.4475 18.2802 11.7992 17.9811C12.1508 17.682 12.6277 17.5139 13.125 17.5139C14.1163 17.5139 15.2137 17.3916 15.8837 18.1615C17.5037 17.5054 18.75 16.1198 18.75 14.3238V7.94359C18.75 6.53347 18.0915 5.18111 16.9194 4.18401C15.7473 3.18691 14.1576 2.62674 12.5 2.62674C10.8424 2.62674 9.25268 3.18691 8.08058 4.18401C6.90848 5.18111 6.25 6.53347 6.25 7.94359V14.5897C6.25 15.0832 6.01953 15.5565 5.6093 15.9055C5.19906 16.2545 4.64266 16.4506 4.0625 16.4506C2.98506 16.4506 1.95175 16.0864 1.18988 15.4383C0.428012 14.7902 1.44262e-07 13.9112 1.44262e-07 12.9946V12.7288C-0.000269939 11.8336 0.378699 10.9684 1.06744 10.2917C1.75619 9.61495 2.70856 9.17205 3.75 9.04418V7.94359Z" fill="#178484"/>
</svg>
