<svg width="25" height="25" viewBox="0 0 25 25" fill="none" xmlns="http://www.w3.org/2000/svg">
<path d="M2.07061 22.8124L9.68166 15.2013M19.266 11.8168L16.9877 18.6529C16.9512 18.7622 16.8889 18.8611 16.806 18.9413C16.7232 19.0214 16.6222 19.0804 16.5118 19.1133L2.5454 23.2657C2.41958 23.303 2.28591 23.3052 2.15895 23.2719C2.032 23.2385 1.91661 23.171 1.82535 23.0767C1.73409 22.9823 1.67046 22.8648 1.64137 22.7368C1.61229 22.6088 1.61887 22.4753 1.6604 22.3508L6.19545 8.74798C6.22796 8.65031 6.28109 8.56078 6.35125 8.48546C6.42141 8.41014 6.50696 8.3508 6.60208 8.31146L13.0447 5.65883C13.1757 5.60474 13.3197 5.59063 13.4587 5.6183C13.5977 5.64597 13.7254 5.71417 13.8256 5.81431L19.0926 11.0825C19.1869 11.1767 19.253 11.2953 19.2836 11.425C19.3143 11.5547 19.3082 11.6904 19.266 11.8168Z" stroke="#178484" stroke-width="1.5" stroke-linecap="round" stroke-linejoin="round"/>
<path d="M20.1375 1.97895L22.9647 4.80618C23.1772 5.00945 23.3469 5.2531 23.4639 5.52285C23.5809 5.7926 23.6428 6.083 23.6461 6.37701C23.6494 6.67103 23.5938 6.96273 23.4828 7.23499C23.3718 7.50726 23.2075 7.75461 22.9996 7.96252C22.7917 8.17043 22.5443 8.33472 22.2721 8.44574C21.9998 8.55676 21.7081 8.61227 21.4141 8.60902C21.1201 8.60577 20.8297 8.54382 20.5599 8.42681C20.2902 8.3098 20.0465 8.14008 19.8433 7.92762L17.0148 5.10039C16.6159 4.68341 16.3961 4.12681 16.4025 3.54978C16.4089 2.97274 16.6409 2.42114 17.049 2.01308C17.457 1.60503 18.0086 1.37297 18.5857 1.36659C19.1627 1.36021 19.7205 1.58002 20.1375 1.97895Z" fill="#178484" stroke="#178484" stroke-width="1.5" stroke-linecap="round" stroke-linejoin="round"/>
<path d="M12.2181 12.6636C12.0526 12.4923 11.8546 12.3556 11.6358 12.2616C11.4169 12.1676 11.1815 12.1181 10.9433 12.116C10.7051 12.114 10.4689 12.1594 10.2484 12.2496C10.028 12.3398 9.82766 12.473 9.65922 12.6414C9.49078 12.8098 9.35758 13.0101 9.26738 13.2306C9.17718 13.4511 9.13179 13.6873 9.13386 13.9255C9.13593 14.1637 9.18541 14.3991 9.27943 14.618C9.37345 14.8368 9.51012 15.0348 9.68145 15.2003C10.0198 15.527 10.4729 15.7078 10.9433 15.7038C11.4137 15.6997 11.8636 15.511 12.1962 15.1784C12.5288 14.8458 12.7175 14.3958 12.7216 13.9255C12.7257 13.4551 12.5449 13.002 12.2181 12.6636Z" stroke="#178484" stroke-width="1.5" stroke-linecap="round" stroke-linejoin="round"/>
</svg>
