<svg width="10" height="11" viewBox="0 0 10 11" fill="none" xmlns="http://www.w3.org/2000/svg">
<path d="M7.50009 1.00198C8.25423 1.4374 8.88158 2.06224 9.32002 2.81463C9.75847 3.56701 9.9928 4.42086 9.99984 5.29165C10.0069 6.16243 9.78636 7.01995 9.36013 7.77932C8.93389 8.5387 8.31672 9.17358 7.56971 9.62114C6.8227 10.0687 5.97176 10.3134 5.10111 10.331C4.23047 10.3486 3.37032 10.1386 2.60581 9.7216C1.8413 9.30464 1.19895 8.69524 0.742342 7.95373C0.285735 7.21223 0.030705 6.36433 0.00250009 5.49398L0 5.33198L0.00250009 5.16998C0.030502 4.30647 0.281777 3.46496 0.731829 2.72747C1.18188 1.98999 1.81535 1.3817 2.57048 0.961919C3.32561 0.542134 4.17662 0.325176 5.04057 0.332196C5.90451 0.339217 6.75189 0.569976 7.50009 1.00198ZM5.00006 2.33198C4.87759 2.33199 4.75939 2.37696 4.66787 2.45833C4.57635 2.53971 4.51788 2.65185 4.50356 2.77348L4.50006 2.83198V5.33198L4.50456 5.39748C4.51596 5.48423 4.54992 5.56646 4.60306 5.63598L4.64656 5.68598L6.14658 7.18598L6.19358 7.22698C6.28126 7.29501 6.38909 7.33193 6.50008 7.33193C6.61106 7.33193 6.7189 7.29501 6.80658 7.22698L6.85358 7.18548L6.89508 7.13848C6.96312 7.05079 7.00004 6.94296 7.00004 6.83198C7.00004 6.72099 6.96312 6.61316 6.89508 6.52548L6.85358 6.47848L5.50007 5.12448V2.83198L5.49657 2.77348C5.48224 2.65185 5.42377 2.53971 5.33225 2.45833C5.24073 2.37696 5.12253 2.33199 5.00006 2.33198Z" fill="#62636D"/>
</svg>
