<svg width="23" height="19" viewBox="0 0 23 19" fill="none" xmlns="http://www.w3.org/2000/svg">
<path d="M0.09375 18.875V15.9583C0.09375 15.3854 0.24132 14.8472 0.536458 14.3437C0.831597 13.8403 1.23958 13.4583 1.76042 13.1979C2.64583 12.7465 3.6441 12.3646 4.75521 12.0521C5.86632 11.7396 7.09028 11.5833 8.42708 11.5833C9.76389 11.5833 10.9878 11.7396 12.099 12.0521C13.2101 12.3646 14.2083 12.7465 15.0937 13.1979C15.6146 13.4583 16.0226 13.8403 16.3177 14.3437C16.6128 14.8472 16.7604 15.3854 16.7604 15.9583V18.875H0.09375ZM8.42708 10.5417C7.28125 10.5417 6.30035 10.1337 5.48438 9.31771C4.6684 8.50174 4.26042 7.52083 4.26042 6.375H4C3.84375 6.375 3.71806 6.32743 3.62292 6.23229C3.52778 6.13715 3.47986 6.01111 3.47917 5.85417C3.47847 5.69722 3.52639 5.57118 3.62292 5.47604C3.71944 5.3809 3.84514 5.33333 4 5.33333H4.26042C4.26042 4.55208 4.45139 3.84896 4.83333 3.22396C5.21528 2.59896 5.71875 2.10417 6.34375 1.73958V2.72917C6.34375 2.88542 6.39167 3.01146 6.4875 3.10729C6.58333 3.20312 6.70903 3.25069 6.86458 3.25C7.02014 3.24931 7.14618 3.20174 7.24271 3.10729C7.33924 3.01285 7.38681 2.88681 7.38542 2.72917V1.32292C7.54167 1.27083 7.7066 1.23194 7.88021 1.20625C8.05382 1.18056 8.23611 1.16736 8.42708 1.16667C8.61806 1.16597 8.80035 1.17917 8.97396 1.20625C9.14757 1.23333 9.3125 1.27222 9.46875 1.32292V2.72917C9.46875 2.88542 9.51667 3.01146 9.6125 3.10729C9.70833 3.20312 9.83403 3.25069 9.98958 3.25C10.1451 3.24931 10.2712 3.20174 10.3677 3.10729C10.4642 3.01285 10.5118 2.88681 10.5104 2.72917V1.73958C11.1354 2.10417 11.6389 2.59896 12.0208 3.22396C12.4028 3.84896 12.5937 4.55208 12.5938 5.33333H12.8542C13.0104 5.33333 13.1365 5.38125 13.2323 5.47708C13.3281 5.57292 13.3757 5.69861 13.375 5.85417C13.3743 6.00972 13.3267 6.13576 13.2323 6.23229C13.1378 6.32882 13.0118 6.37639 12.8542 6.375H12.5938C12.5938 7.52083 12.1858 8.50174 11.3698 9.31771C10.5538 10.1337 9.57292 10.5417 8.42708 10.5417ZM8.42708 8.45833C9 8.45833 9.49062 8.25451 9.89896 7.84687C10.3073 7.43924 10.5111 6.94861 10.5104 6.375H6.34375C6.34375 6.94792 6.54792 7.43854 6.95625 7.84687C7.36458 8.25521 7.85486 8.45903 8.42708 8.45833ZM16.2396 12.625L16.0833 11.8438C15.9792 11.809 15.8795 11.7701 15.7844 11.7271C15.6892 11.684 15.5979 11.6187 15.5104 11.5312L14.7812 11.7917L14.2604 10.8542L14.8333 10.3333V9.70833L14.2604 9.1875L14.7812 8.25L15.5104 8.51042C15.5799 8.44097 15.6667 8.38021 15.7708 8.32812C15.875 8.27604 15.9792 8.23264 16.0833 8.19792L16.2396 7.41667H17.2812L17.4375 8.19792C17.5417 8.23264 17.6458 8.27604 17.75 8.32812C17.8542 8.38021 17.941 8.44097 18.0104 8.51042L18.7396 8.25L19.2604 9.1875L18.6875 9.70833V10.3333L19.2604 10.8542L18.7396 11.7917L18.0104 11.5312C17.9236 11.6181 17.8326 11.6833 17.7375 11.7271C17.6424 11.7708 17.5424 11.8097 17.4375 11.8438L17.2812 12.625H16.2396ZM16.7604 10.8021C16.9687 10.8021 17.151 10.724 17.3073 10.5677C17.4635 10.4115 17.5417 10.2292 17.5417 10.0208C17.5417 9.8125 17.4635 9.63021 17.3073 9.47396C17.151 9.31771 16.9687 9.23958 16.7604 9.23958C16.5521 9.23958 16.3698 9.31771 16.2135 9.47396C16.0573 9.63021 15.9792 9.8125 15.9792 10.0208C15.9792 10.2292 16.0573 10.4115 16.2135 10.5677C16.3698 10.724 16.5521 10.8021 16.7604 10.8021ZM18.6354 7.41667L18.4271 6.32292C18.2708 6.27083 18.1278 6.2059 17.9979 6.12812C17.8681 6.05035 17.7507 5.95903 17.6458 5.85417L16.5521 6.21875L15.8229 4.96875L16.7083 4.1875C16.6736 4.10069 16.6562 4.03125 16.6562 3.97917V3.5625C16.6562 3.51042 16.6736 3.44097 16.7083 3.35417L15.8229 2.57292L16.5521 1.32292L17.6458 1.6875C17.75 1.58333 17.8674 1.49201 17.9979 1.41354C18.1285 1.33507 18.2715 1.27014 18.4271 1.21875L18.6354 0.125H20.0938L20.3021 1.21875C20.4583 1.27083 20.6017 1.33611 20.7323 1.41458C20.8628 1.49306 20.9799 1.58403 21.0833 1.6875L22.1771 1.32292L22.9062 2.57292L22.0208 3.35417C22.0556 3.44097 22.0729 3.51042 22.0729 3.5625V3.97917C22.0729 4.03125 22.0556 4.10069 22.0208 4.1875L22.9062 4.96875L22.1771 6.21875L21.0833 5.85417C20.9792 5.95833 20.8622 6.04965 20.7323 6.12812C20.6024 6.2066 20.459 6.27153 20.3021 6.32292L20.0938 7.41667H18.6354ZM19.3646 5.07292C19.7292 5.07292 20.0375 4.94688 20.2896 4.69479C20.5417 4.44271 20.6674 4.13472 20.6667 3.77083C20.666 3.40694 20.5399 3.09861 20.2885 2.84583C20.0372 2.59306 19.7292 2.46736 19.3646 2.46875C19 2.47014 18.6917 2.59618 18.4396 2.84687C18.1875 3.09757 18.0618 3.40556 18.0625 3.77083C18.0632 4.13611 18.1892 4.44444 18.4406 4.69583C18.692 4.94722 19 5.07292 19.3646 5.07292Z" fill="#178484"/>
</svg>
