<svg width="12" height="16" viewBox="0 0 12 16" fill="none" xmlns="http://www.w3.org/2000/svg">
<path d="M1.99984 13.3333C1.64622 13.3333 1.30708 13.1928 1.05703 12.9427C0.80698 12.6927 0.666504 12.3535 0.666504 11.9999V5.33325C0.666504 4.97963 0.80698 4.64049 1.05703 4.39044C1.30708 4.14039 1.64622 3.99992 1.99984 3.99992H9.99984C10.3535 3.99992 10.6926 4.14039 10.9426 4.39044C11.1927 4.64049 11.3332 4.97963 11.3332 5.33325V11.9999C11.3332 12.3535 11.1927 12.6927 10.9426 12.9427C10.6926 13.1928 10.3535 13.3333 9.99984 13.3333M1.99984 13.3333C1.99984 14.0696 2.59679 14.6666 3.33317 14.6666C4.06955 14.6666 4.6665 14.0696 4.6665 13.3333M1.99984 13.3333C1.99984 12.5969 2.59679 11.9999 3.33317 11.9999M9.99984 13.3333C9.99984 14.0696 9.40288 14.6666 8.6665 14.6666C7.93012 14.6666 7.33317 14.0696 7.33317 13.3333M9.99984 13.3333C9.99984 12.5969 9.40288 11.9999 8.6665 11.9999M3.33317 11.9999V2.66659C3.33317 2.31296 3.47365 1.97382 3.72369 1.72378C3.97374 1.47373 4.31288 1.33325 4.6665 1.33325H7.33317C7.68679 1.33325 8.02593 1.47373 8.27598 1.72378C8.52603 1.97382 8.6665 2.31296 8.6665 2.66659V11.9999M3.33317 11.9999C4.06955 11.9999 4.6665 12.5969 4.6665 13.3333M8.6665 11.9999C7.93012 11.9999 7.33317 12.5969 7.33317 13.3333M4.6665 13.3333H7.33317" stroke="#5C5A57" stroke-linecap="round" stroke-linejoin="round"/>
</svg>
