<svg width="25" height="13" viewBox="0 0 25 13" fill="none" xmlns="http://www.w3.org/2000/svg">
<path d="M21.5 0H0V13H25V0H21.5ZM24 9.6355C23.4333 9.78798 22.9166 10.0867 22.5016 10.5016C22.0867 10.9166 21.788 11.4333 21.6355 12H3.3645C3.21202 11.4333 2.91334 10.9166 2.49837 10.5016C2.0834 10.0867 1.5667 9.78798 1 9.6355V3.3645C1.5667 3.21202 2.0834 2.91334 2.49837 2.49837C2.91334 2.0834 3.21202 1.5667 3.3645 1H21.647C21.8131 1.55667 22.1152 2.06324 22.526 2.47402C22.9368 2.88481 23.4433 3.18688 24 3.353V9.6355ZM13.558 7.5275C13.443 7.4575 13.5 7.393 13 7.3335V8.782L13.274 8.731C13.645 8.60067 13.8307 8.35883 13.831 8.0055C13.831 7.801 13.7395 7.64 13.558 7.5275ZM11.3075 5.164C11.3075 5.387 11.4087 5.55367 11.611 5.664C11.689 5.70767 11.8185 5.75583 11.9995 5.8085V4.438C11.8632 4.46774 11.733 4.52104 11.615 4.5955C11.41 4.73183 11.3075 4.92133 11.3075 5.164ZM12.5 1.5C10.0145 1.5 8 3.739 8 6.5C8 9.2605 10.0145 11.5 12.5 11.5C14.9855 11.5 17 9.2605 17 6.5C17 3.739 14.9855 1.5 12.5 1.5ZM14.427 9.327C14.0875 9.617 13.5 9.7945 13 9.8615V10.5H12V9.85C11.478 9.779 11.0455 9.7 10.706 9.4325C10.4893 9.26114 10.3136 9.04366 10.1914 8.79588C10.0693 8.54809 10.0039 8.27622 10 8H11.244C11.2845 8 11.3635 8.4005 11.4815 8.542C11.604 8.6875 11.778 8.7045 12 8.766V7.0635C11.3915 6.923 10.9675 6.7715 10.732 6.6085C10.3117 6.32083 10.1015 5.87083 10.1015 5.2585C10.1015 4.70017 10.3072 4.23617 10.7185 3.8665C11.0328 3.5845 11.46 3.41017 12 3.3435V2.5H13V3.37C13.5 3.4445 13.838 3.6765 14.15 3.908C14.6195 4.2565 14.95 4.5 14.9725 5.5H13.7195C13.696 5 13.445 4.784 13.1335 4.626C13.0862 4.59533 13.0415 4.5607 13 4.5225V6.094L13.451 6.181C13.9305 6.294 14.374 6.445 14.613 6.6335C14.985 6.9275 15.129 7.352 15.129 7.907C15.13 8.477 14.867 8.95 14.427 9.327Z" fill="#178484"/>
</svg>
