<svg width="19" height="21" viewBox="0 0 19 21" fill="none" xmlns="http://www.w3.org/2000/svg">
<path d="M9.5 0.083252C7.98053 0.083252 6.52329 0.686859 5.44887 1.76129C4.37444 2.83571 3.77083 4.29295 3.77083 5.81242C3.77083 7.33189 4.37444 8.78913 5.44887 9.86355C6.52329 10.938 7.98053 11.5416 9.5 11.5416C11.0195 11.5416 12.4767 10.938 13.5511 9.86355C14.6256 8.78913 15.2292 7.33189 15.2292 5.81242C15.2292 4.29295 14.6256 2.83571 13.5511 1.76129C12.4767 0.686859 11.0195 0.083252 9.5 0.083252ZM5.33333 12.5833C3.952 12.5833 2.62724 13.132 1.65049 14.1087C0.673733 15.0855 0.125 16.4102 0.125 17.7916V20.9166H18.875V17.7916C18.875 16.4102 18.3263 15.0855 17.3495 14.1087C16.3728 13.132 15.048 12.5833 13.6667 12.5833H12.2271L9.5 18.0374L6.77292 12.5833H5.33333Z" fill="#178484"/>
</svg>
