<svg width="25" height="26" viewBox="0 0 25 26" fill="none" xmlns="http://www.w3.org/2000/svg">
<path d="M14.5833 20.9638H3.64575C3.23135 20.9638 2.83392 20.7992 2.5409 20.5061C2.24787 20.2131 2.08325 19.8157 2.08325 19.4013V5.85962C2.08325 5.44522 2.24787 5.04779 2.5409 4.75476C2.83392 4.46174 3.23135 4.29712 3.64575 4.29712H21.3541C21.7685 4.29712 22.1659 4.46174 22.4589 4.75476C22.752 5.04779 22.9166 5.44522 22.9166 5.85962V12.1403M20.3124 21.4846V15.2346M20.3124 15.2346L17.7083 17.8388M20.3124 15.2346L22.9166 17.8388" stroke="#178484" stroke-width="2" stroke-linecap="round" stroke-linejoin="round"/>
<path d="M2.08325 5.85962C2.08325 5.44522 2.24787 5.04779 2.5409 4.75476C2.83392 4.46174 3.23135 4.29712 3.64575 4.29712H21.3541C21.7685 4.29712 22.1659 4.46174 22.4589 4.75476C22.752 5.04779 22.9166 5.44522 22.9166 5.85962V10.5471H2.08325V5.85962Z" stroke="#178484" stroke-width="2"/>
<path d="M4.16667 7.4222C4.16667 6.8469 4.63304 6.38053 5.20833 6.38053C5.78363 6.38053 6.25 6.8469 6.25 7.4222C6.25 7.9975 5.78363 8.46387 5.20833 8.46387C4.63304 8.46387 4.16667 7.9975 4.16667 7.4222Z" fill="#178484"/>
<path d="M7.29167 7.4222C7.29167 6.8469 7.75804 6.38053 8.33333 6.38053C8.90863 6.38053 9.375 6.8469 9.375 7.4222C9.375 7.9975 8.90863 8.46387 8.33333 8.46387C7.75804 8.46387 7.29167 7.9975 7.29167 7.4222Z" fill="#178484"/>
</svg>
