<svg width="12" height="16" viewBox="0 0 12 16" fill="none" xmlns="http://www.w3.org/2000/svg">
<path d="M11.3334 6.66659C11.3334 9.99525 7.64075 13.4619 6.40075 14.5326C6.28523 14.6194 6.14461 14.6664 6.00008 14.6664C5.85555 14.6664 5.71493 14.6194 5.59941 14.5326C4.35941 13.4619 0.666748 9.99525 0.666748 6.66659C0.666748 5.2521 1.22865 3.89554 2.22885 2.89535C3.22904 1.89516 4.58559 1.33325 6.00008 1.33325C7.41457 1.33325 8.77112 1.89516 9.77132 2.89535C10.7715 3.89554 11.3334 5.2521 11.3334 6.66659Z" stroke="#5C5A57" stroke-linecap="round" stroke-linejoin="round"/>
<path d="M6.00008 8.66659C7.10465 8.66659 8.00008 7.77115 8.00008 6.66659C8.00008 5.56202 7.10465 4.66659 6.00008 4.66659C4.89551 4.66659 4.00008 5.56202 4.00008 6.66659C4.00008 7.77115 4.89551 8.66659 6.00008 8.66659Z" stroke="#5C5A57" stroke-linecap="round" stroke-linejoin="round"/>
</svg>
