<svg width="25" height="21" viewBox="0 0 25 21" fill="none" xmlns="http://www.w3.org/2000/svg">
<path d="M23.2143 7C23.7072 7 24.1281 7.1709 24.4768 7.51269C24.8256 7.85449 25 8.26693 25 8.75C25 9.23307 24.8256 9.64551 24.4768 9.9873C24.1281 10.3291 23.7072 10.5 23.2143 10.5V15.75C23.2143 16.224 23.0376 16.6341 22.6842 16.9805C22.3307 17.3268 21.9122 17.5 21.4286 17.5C17.5502 14.3372 13.7742 12.6055 10.1004 12.3047C9.56101 12.4779 9.13783 12.7786 8.83092 13.207C8.524 13.6354 8.37984 14.0934 8.39844 14.5811C8.41704 15.0687 8.60305 15.4902 8.95647 15.8457C8.77046 16.1465 8.6635 16.445 8.6356 16.7412C8.6077 17.0374 8.6356 17.3018 8.71931 17.5342C8.80301 17.7666 8.9588 18.0173 9.18666 18.2861C9.41453 18.555 9.63774 18.7829 9.85631 18.9697C10.0749 19.1566 10.3609 19.3867 10.7143 19.6602C10.4446 20.1888 9.92606 20.5671 9.15876 20.7949C8.39146 21.0228 7.60789 21.0752 6.80804 20.9521C6.00818 20.8291 5.39435 20.5762 4.96652 20.1934C4.90141 19.9837 4.76423 19.585 4.55497 18.9971C4.3457 18.4092 4.19689 17.9785 4.10854 17.7051C4.02018 17.4316 3.91323 17.026 3.78767 16.4883C3.66211 15.9505 3.59235 15.4902 3.5784 15.1074C3.56445 14.7246 3.58073 14.2757 3.62723 13.7607C3.67374 13.2458 3.77604 12.7422 3.93415 12.25H2.23214C1.6183 12.25 1.09282 12.0358 0.655692 11.6074C0.218564 11.179 0 10.6641 0 10.0625V7.4375C0 6.83594 0.218564 6.32096 0.655692 5.89258C1.09282 5.46419 1.6183 5.25 2.23214 5.25H8.92857C12.9743 5.25 17.141 3.5 21.4286 0C21.9122 0 22.3307 0.173177 22.6842 0.519531C23.0376 0.865885 23.2143 1.27604 23.2143 1.75V7ZM21.4286 15.2578V2.21484C17.7641 4.96745 14.1927 6.5306 10.7143 6.9043V10.5957C14.2206 10.9785 17.792 12.5326 21.4286 15.2578Z" fill="#178484"/>
</svg>
