<svg width="14" height="18" viewBox="0 0 14 18" fill="none" xmlns="http://www.w3.org/2000/svg">
<path d="M0.333496 14.8334V13.1667H2.00016V7.33341C2.00016 6.18064 2.34738 5.1598 3.04183 4.27091C3.73627 3.36814 4.63905 2.77786 5.75016 2.50008V1.91675C5.75016 1.56953 5.86822 1.27786 6.10433 1.04175C6.35433 0.791748 6.65294 0.666748 7.00016 0.666748C7.34738 0.666748 7.63905 0.791748 7.87516 1.04175C8.12516 1.27786 8.25016 1.56953 8.25016 1.91675V2.50008C9.36127 2.77786 10.2641 3.36814 10.9585 4.27091C11.6529 5.1598 12.0002 6.18064 12.0002 7.33341V13.1667H13.6668V14.8334H0.333496ZM7.00016 17.3334C6.54183 17.3334 6.146 17.1737 5.81266 16.8542C5.49322 16.5209 5.3335 16.1251 5.3335 15.6667H8.66683C8.66683 16.1251 8.50016 16.5209 8.16683 16.8542C7.84738 17.1737 7.4585 17.3334 7.00016 17.3334ZM3.66683 13.1667H10.3335V7.33341C10.3335 6.41675 10.0071 5.63203 9.35433 4.97925C8.70155 4.32647 7.91683 4.00008 7.00016 4.00008C6.0835 4.00008 5.29877 4.32647 4.646 4.97925C3.99322 5.63203 3.66683 6.41675 3.66683 7.33341V13.1667Z" fill="#0F172A"/>
</svg>
