<svg width="16" height="16" viewBox="0 0 16 16" fill="none" xmlns="http://www.w3.org/2000/svg">
<path d="M10.6666 5.33325H6.66659C6.31296 5.33325 5.97383 5.47373 5.72378 5.72378C5.47373 5.97383 5.33325 6.31296 5.33325 6.66659C5.33325 7.02021 5.47373 7.35935 5.72378 7.60939C5.97383 7.85944 6.31296 7.99992 6.66659 7.99992H9.33325C9.68687 7.99992 10.026 8.14039 10.2761 8.39044C10.5261 8.64049 10.6666 8.97963 10.6666 9.33325C10.6666 9.68687 10.5261 10.026 10.2761 10.2761C10.026 10.5261 9.68687 10.6666 9.33325 10.6666H5.33325M7.99992 11.9999V3.99992M14.6666 7.99992C14.6666 11.6818 11.6818 14.6666 7.99992 14.6666C4.31802 14.6666 1.33325 11.6818 1.33325 7.99992C1.33325 4.31802 4.31802 1.33325 7.99992 1.33325C11.6818 1.33325 14.6666 4.31802 14.6666 7.99992Z" stroke="#5C5A57" stroke-linecap="round" stroke-linejoin="round"/>
</svg>
