<svg width="10" height="11" viewBox="0 0 10 11" fill="none" xmlns="http://www.w3.org/2000/svg">
<g clip-path="url(#clip0_5415_2001)">
<path d="M3.12516 3.66602C3.24022 3.66602 3.3335 3.57274 3.3335 3.45768C3.3335 3.34262 3.24022 3.24935 3.12516 3.24935C3.0101 3.24935 2.91683 3.34262 2.91683 3.45768C2.91683 3.57274 3.0101 3.66602 3.12516 3.66602Z" fill="#1E1F24"/>
<path d="M5.24433 1.41018C5.08809 1.25389 4.87616 1.16606 4.65516 1.16602H1.66683C1.44582 1.16602 1.23385 1.25381 1.07757 1.41009C0.921293 1.56637 0.833496 1.77834 0.833496 1.99935V4.98768C0.833543 5.20868 0.921372 5.42061 1.07766 5.57685L4.70433 9.20352C4.89371 9.3917 5.14985 9.49732 5.41683 9.49732C5.68381 9.49732 5.93995 9.3917 6.12933 9.20352L8.871 6.46185C9.05918 6.27247 9.1648 6.01633 9.1648 5.74935C9.1648 5.48237 9.05918 5.22623 8.871 5.03685L5.24433 1.41018Z" stroke="#1E1F24" stroke-linecap="round" stroke-linejoin="round"/>
<path d="M3.12516 3.66602C3.24022 3.66602 3.3335 3.57274 3.3335 3.45768C3.3335 3.34262 3.24022 3.24935 3.12516 3.24935C3.0101 3.24935 2.91683 3.34262 2.91683 3.45768C2.91683 3.57274 3.0101 3.66602 3.12516 3.66602Z" stroke="#1E1F24" stroke-linecap="round" stroke-linejoin="round"/>
</g>
<defs>
<clipPath id="clip0_5415_2001">
<rect width="10" height="10" fill="white" transform="translate(0 0.332031)"/>
</clipPath>
</defs>
</svg>
